<mxfile host="app.diagrams.net" modified="2023-04-23T12:24:28.080Z" agent="Mozilla/5.0 (Windows NT 10.0; Win64; x64) AppleWebKit/537.36 (KHTML, like Gecko) Chrome/112.0.0.0 Safari/537.36" etag="9caiVrl3FVfwBzFcIQ-c" version="21.2.1" type="github">
  <diagram name="Robustness v0.1" id="MVgVls76WPpNq6Cu12q4">
    <mxGraphModel dx="1434" dy="764" grid="1" gridSize="10" guides="1" tooltips="1" connect="1" arrows="1" fold="1" page="1" pageScale="1" pageWidth="827" pageHeight="1169" math="0" shadow="0">
      <root>
        <mxCell id="0" />
        <mxCell id="1" parent="0" />
        <mxCell id="mqDdAt-UPzIkkPcqHvNS-1" value="Actor" style="shape=umlActor;verticalLabelPosition=bottom;verticalAlign=top;html=1;outlineConnect=0;" vertex="1" parent="1">
          <mxGeometry x="400" y="360" width="30" height="60" as="geometry" />
        </mxCell>
        <mxCell id="mqDdAt-UPzIkkPcqHvNS-2" value="this is a test" style="ellipse;whiteSpace=wrap;html=1;" vertex="1" parent="1">
          <mxGeometry x="414" y="200" width="120" height="80" as="geometry" />
        </mxCell>
      </root>
    </mxGraphModel>
  </diagram>
</mxfile>
